<svg id="Layer_1" data-name="Layer 1" xmlns="http://www.w3.org/2000/svg" viewBox="0 0 589.02 164.24"><defs><style>.cls-1{fill:#c7c7c6;}</style></defs><title>logo-footer</title><path class="cls-1" d="M82.7,18.32a63.8,63.8,0,1,0,63.8,63.8A63.8,63.8,0,0,0,82.7,18.32Zm-17.09,9a57.24,57.24,0,0,1,34.88.22,19.82,19.82,0,0,0-7.69,10.17c-2.41,7.3.13,14,2.38,19.84l0.25,0.65c1.32,3.46,1.94,7.92-1.43,11a17,17,0,0,0-4.66-3c0.53-7.19-3.68-13.54-11.72-17.18L77,48.83C71.67,46.44,67.1,44.38,64.82,40c-2.48-4.75-1.07-9.35.55-12.37ZM91.73,82a9,9,0,1,1-9-9A9,9,0,0,1,91.73,82Zm-36-50.5a19.65,19.65,0,0,0,2,12.24c3.56,6.82,10.13,9.79,15.93,12.41l0.64,0.29c3.4,1.54,7,4.22,7.07,8.63A16.9,16.9,0,0,0,76,66.36c-4.78-5.52-12.33-7.15-20.61-4.18l-0.66.24c-5.44,2-10.15,3.65-14.95,2.11a13.3,13.3,0,0,1-8.3-8.27A57.78,57.78,0,0,1,55.71,31.47ZM27.84,99a57.34,57.34,0,0,1-.11-33.42,20.42,20.42,0,0,0,9.59,6.55c7.39,2.38,14.15,0,20.11-2.19l0.66-.24c3.6-1.29,8.23-1.89,11.5,1.47A17,17,0,0,0,67,75.59c-7.47-.74-14.08,3.35-17.82,11.34l-0.29.63c-2.39,5.13-4.46,9.56-8.9,11.76a13.72,13.72,0,0,1-11.9-.17ZM55.2,132.47a57.79,57.79,0,0,1-23.49-24.05,21.72,21.72,0,0,0,2.73.18,20.36,20.36,0,0,0,9.08-2.11c7-3.44,10-9.87,12.61-15.55l0.29-.62c1.61-3.44,4.5-7.11,9.4-6.81A16.89,16.89,0,0,0,67,88.42c-5.81,4.67-7.51,12.2-4.34,20.51l0.25,0.65c2,5.3,3.77,9.88,2.26,14.48-1.67,5.07-6,7.33-9.4,8.34ZM100,136.83a57.26,57.26,0,0,1-34.94-.1,19.81,19.81,0,0,0,7.69-10.17c2.41-7.3-.13-14-2.38-19.84l-0.25-.64c-1.34-3.51-2-8,1.57-11.17a17,17,0,0,0,4.55,2.79C75.59,105,79.8,111.48,88,115.17l0.65,0.29c5.29,2.39,9.85,4.45,12.13,8.82,2.48,4.75,1.07,9.35-.55,12.37A0.36,0.36,0,0,1,100,136.83Zm9.84-4.17a19.64,19.64,0,0,0-2-12.09c-3.56-6.82-10.13-9.79-15.93-12.41l-0.64-.29c-3.49-1.58-7.22-4.37-7.06-9a16.9,16.9,0,0,0,5.12-1.25c4.77,5.74,12.43,7.48,20.85,4.46l0.67-.24c5.44-2,10.15-3.65,14.94-2.1a13.24,13.24,0,0,1,8.22,8.06A57.78,57.78,0,0,1,109.86,132.67ZM140.1,82.11a57.2,57.2,0,0,1-2.41,16.43,20.41,20.41,0,0,0-9.46-6.4c-7.39-2.38-14.15,0-20.1,2.19l-0.66.24c-3.67,1.32-8.42,1.91-11.7-1.69a17,17,0,0,0,2.59-4.2,17.44,17.44,0,0,0,1.94.12c6.76,0,12.65-4.07,16.1-11.45l0.3-.63c2.39-5.13,4.46-9.56,8.9-11.76a13.72,13.72,0,0,1,12,.2A57.2,57.2,0,0,1,140.1,82.11ZM122,57.8c-7,3.44-10,9.87-12.6,15.54l-0.29.63c-1.62,3.46-4.53,7.15-9.47,6.81a16.89,16.89,0,0,0-1.09-4.93c5.79-4.68,7.48-12.19,4.32-20.49l-0.25-.66c-2-5.3-3.77-9.88-2.25-14.48,1.67-5.07,6-7.33,9.4-8.34l0.44-.12a57.79,57.79,0,0,1,23.47,24.07A20.53,20.53,0,0,0,122,57.8Z"/><path class="cls-1" d="M82.7,0.86A81.25,81.25,0,1,0,164,82.11,81.25,81.25,0,0,0,82.7.86Zm0,152.31a71.05,71.05,0,1,1,71.05-71.05A71.13,71.13,0,0,1,82.7,153.17Z"/><path class="cls-1" d="M150.27,15.1C142.66,7.42,132.85,1.78,124,0a1.1,1.1,0,0,0-.67,2.08A82.81,82.81,0,0,1,163,42.27a1.1,1.1,0,0,0,2.08-.66C163.26,32.3,158,22.89,150.27,15.1Z"/><path class="cls-1" d="M41.8,162.14A82.82,82.82,0,0,1,2.11,122a1.1,1.1,0,0,0-2.08.66c1.87,9.3,7.15,18.72,14.87,26.5s17.42,13.32,26.24,15.08l0.22,0A1.1,1.1,0,0,0,41.8,162.14Z"/><path class="cls-1" d="M229.51,49.8h-30a1.75,1.75,0,0,0-1.75,1.75V113.2a1.75,1.75,0,0,0,1.75,1.75h6a1.75,1.75,0,0,0,1.75-1.75V87h19.4a1.75,1.75,0,0,0,1.75-1.75v-6a1.75,1.75,0,0,0-1.75-1.75H207.3V59.3h22.21a1.75,1.75,0,0,0,1.75-1.75v-6A1.75,1.75,0,0,0,229.51,49.8Z"/><path class="cls-1" d="M275.74,105.45H253.53V51.55a1.75,1.75,0,0,0-1.75-1.75h-6A1.75,1.75,0,0,0,244,51.55V113.2a1.75,1.75,0,0,0,1.75,1.75h30a1.75,1.75,0,0,0,1.75-1.75v-6A1.75,1.75,0,0,0,275.74,105.45Z"/><path class="cls-1" d="M317.67,49.57H311a1.75,1.75,0,0,0-1.54.92L295.92,75.56,282.07,50.47a1.75,1.75,0,0,0-1.53-.9h-6.69a1.75,1.75,0,0,0-1.54,2.59L291,86.58V113.2a1.75,1.75,0,0,0,1.75,1.75h6a1.75,1.75,0,0,0,1.75-1.75v-26l18.68-35.05A1.75,1.75,0,0,0,317.67,49.57Z"/><path class="cls-1" d="M587.27,105.45H565.06V51.55a1.75,1.75,0,0,0-1.75-1.75h-6a1.75,1.75,0,0,0-1.75,1.75V113.2a1.75,1.75,0,0,0,1.75,1.75h30A1.75,1.75,0,0,0,589,113.2v-6A1.75,1.75,0,0,0,587.27,105.45Z"/><path class="cls-1" d="M443.73,49.8h-6A1.75,1.75,0,0,0,436,51.55V77.49H414.5V51.55a1.75,1.75,0,0,0-1.75-1.75h-6A1.75,1.75,0,0,0,405,51.55V113.2a1.75,1.75,0,0,0,1.75,1.75h6a1.75,1.75,0,0,0,1.75-1.75V87H436V113.2a1.75,1.75,0,0,0,1.75,1.75h6a1.75,1.75,0,0,0,1.75-1.75V51.55A1.75,1.75,0,0,0,443.73,49.8Z"/><path class="cls-1" d="M492.1,49.8H461.71A1.75,1.75,0,0,0,460,51.55V113.2a1.75,1.75,0,0,0,1.75,1.75H492.1a1.75,1.75,0,0,0,1.75-1.75v-6a1.75,1.75,0,0,0-1.75-1.75H469.46V87h19.7a1.75,1.75,0,0,0,1.75-1.75v-6a1.75,1.75,0,0,0-1.75-1.75h-19.7V59.3H492.1a1.75,1.75,0,0,0,1.75-1.75v-6A1.75,1.75,0,0,0,492.1,49.8Z"/><path class="cls-1" d="M540,49.8H509.62a1.75,1.75,0,0,0-1.75,1.75V113.2a1.75,1.75,0,0,0,1.75,1.75H540a1.75,1.75,0,0,0,1.75-1.75v-6a1.75,1.75,0,0,0-1.75-1.75H517.37V87h19.76a1.75,1.75,0,0,0,1.75-1.75v-6a1.75,1.75,0,0,0-1.75-1.75H517.37V59.3H540a1.75,1.75,0,0,0,1.75-1.75v-6A1.75,1.75,0,0,0,540,49.8Z"/><path class="cls-1" d="M392.73,49.78h-6.57a1.25,1.25,0,0,0-1.22,1L374.81,94.4,364.5,50.75a1.25,1.25,0,0,0-1.22-1h-6.6a1.25,1.25,0,0,0-1.22,1L345.14,94.34,335,50.75a1.25,1.25,0,0,0-1.22-1h-6.57A1.25,1.25,0,0,0,326,51.32L340.58,114a1.25,1.25,0,0,0,1.23,1h6.58a1.25,1.25,0,0,0,1.22-1L360,70.31l10.35,43.8a1.25,1.25,0,0,0,1.22,1h6.62a1.25,1.25,0,0,0,1.22-1l14.57-62.79A1.25,1.25,0,0,0,392.73,49.78Z"/></svg>